<svg id="svg" version="1.1" xmlns="http://www.w3.org/2000/svg" xmlns:xlink="http://www.w3.org/1999/xlink" width="400" height="312" viewBox="0, 0, 400,312"><g id="svgg"><path id="path0" d="M63.200 46.664 C 59.210 47.701,56.627 50.873,51.191 61.412 C 49.663 64.376,48.201 66.980,47.944 67.200 C 47.043 67.970,41.600 78.758,41.600 79.774 C 41.600 80.338,41.240 80.800,40.800 80.800 C 40.360 80.800,40.000 81.520,40.000 82.400 C 40.000 83.280,39.665 84.000,39.255 84.000 C 38.846 84.000,37.226 86.568,35.655 89.707 L 32.800 95.415 32.812 113.907 C 32.819 124.078,33.089 132.796,33.412 133.280 C 35.225 135.996,35.499 136.000,207.040 136.000 L 376.584 136.000 378.692 134.342 L 380.800 132.684 380.800 114.049 L 380.800 95.415 377.945 89.707 C 376.374 86.568,374.754 84.000,374.345 84.000 C 373.935 84.000,373.600 83.280,373.600 82.400 C 373.600 81.520,373.240 80.800,372.800 80.800 C 372.360 80.800,372.000 80.338,372.000 79.774 C 372.000 78.760,366.559 67.973,365.658 67.200 C 365.401 66.980,364.113 64.695,362.796 62.121 C 357.370 51.525,354.282 47.676,350.394 46.664 C 345.228 45.320,68.374 45.320,63.200 46.664 M192.800 56.000 L 192.800 59.200 252.800 59.200 L 312.800 59.200 312.800 62.800 L 312.800 66.400 252.400 66.400 L 192.000 66.400 192.000 70.400 C 192.000 72.600,191.730 74.386,191.400 74.370 C 189.931 74.295,110.043 62.497,110.400 62.407 C 112.043 61.994,187.453 52.950,189.800 52.884 C 192.781 52.801,192.800 52.821,192.800 56.000 M240.800 70.741 C 244.980 71.363,252.000 72.300,256.400 72.821 C 260.800 73.343,265.120 73.867,266.000 73.986 C 274.042 75.073,281.650 76.112,283.776 76.416 C 285.193 76.618,292.181 77.506,299.306 78.389 C 310.486 79.774,315.824 80.795,311.933 80.802 C 309.691 80.807,296.254 82.472,289.200 83.620 C 272.119 86.399,230.275 92.800,229.188 92.800 C 228.296 92.800,228.000 91.804,228.000 88.800 L 228.000 84.800 168.000 84.800 L 108.000 84.800 108.000 81.200 L 108.000 77.600 168.000 77.600 L 228.000 77.600 228.000 73.600 C 228.000 68.861,228.070 68.846,240.800 70.741 M357.600 113.600 L 357.600 129.600 205.600 129.600 L 53.600 129.600 53.600 113.600 L 53.600 97.600 205.600 97.600 L 357.600 97.600 357.600 113.600 M66.720 106.720 C 64.263 109.177,64.000 109.881,64.000 114.000 C 64.000 118.119,64.263 118.823,66.720 121.280 C 73.357 127.917,84.000 123.433,84.000 114.000 C 84.000 107.364,80.636 104.000,74.000 104.000 C 69.881 104.000,69.177 104.263,66.720 106.720 M129.120 106.720 C 126.663 109.177,126.400 109.881,126.400 114.000 C 126.400 118.119,126.663 118.823,129.120 121.280 C 131.577 123.737,132.281 124.000,136.400 124.000 C 145.833 124.000,150.317 113.357,143.680 106.720 C 141.223 104.263,140.519 104.000,136.400 104.000 C 132.281 104.000,131.577 104.263,129.120 106.720 M197.920 106.720 C 195.463 109.177,195.200 109.881,195.200 114.000 C 195.200 118.119,195.463 118.823,197.920 121.280 C 204.557 127.917,215.200 123.433,215.200 114.000 C 215.200 107.364,211.836 104.000,205.200 104.000 C 201.081 104.000,200.377 104.263,197.920 106.720 M265.120 106.720 C 258.483 113.357,262.967 124.000,272.400 124.000 C 279.036 124.000,282.400 120.636,282.400 114.000 C 282.400 107.364,279.036 104.000,272.400 104.000 C 268.281 104.000,267.577 104.263,265.120 106.720 M329.120 106.720 C 322.483 113.357,326.967 124.000,336.400 124.000 C 343.036 124.000,346.400 120.636,346.400 114.000 C 346.400 107.364,343.036 104.000,336.400 104.000 C 332.281 104.000,331.577 104.263,329.120 106.720 M34.500 141.366 C 16.459 150.254,16.334 201.201,34.305 221.031 C 40.929 228.340,41.827 230.315,42.238 238.477 C 43.017 253.956,34.898 258.867,25.751 248.449 C 22.402 244.635,22.743 243.832,21.359 258.800 L 20.175 271.600 23.739 274.977 C 51.293 301.081,68.526 226.064,41.742 196.605 C 33.191 187.199,30.838 178.271,34.765 170.134 C 37.297 164.889,43.868 164.929,48.026 170.215 C 50.260 173.055,50.347 172.801,51.775 159.270 L 53.051 147.171 51.126 145.080 C 46.857 140.445,39.641 138.834,34.500 141.366 M217.200 142.687 L 214.000 143.651 213.795 210.529 L 213.591 277.408 217.150 278.304 C 232.234 282.102,243.159 276.307,247.637 262.131 C 253.257 244.340,251.540 217.736,244.111 207.480 L 241.804 204.296 243.357 202.164 C 253.754 187.892,250.056 149.555,237.673 143.237 C 233.940 141.333,222.698 141.031,217.200 142.687 M233.034 165.613 C 241.070 171.933,237.711 194.244,228.499 195.739 L 225.600 196.209 225.600 180.563 C 225.600 166.335,225.727 164.884,227.000 164.551 C 229.807 163.818,231.025 164.032,233.034 165.613 M161.275 181.625 C 141.227 187.693,138.979 267.957,158.574 278.090 C 161.651 279.681,167.536 279.265,170.631 277.237 L 172.817 275.805 172.298 266.903 C 171.710 256.813,171.729 256.874,169.752 258.662 C 161.541 266.093,155.281 255.686,154.598 233.467 C 153.811 207.891,159.952 194.468,169.134 201.691 C 171.960 203.914,171.876 204.134,172.157 193.683 C 172.455 182.557,169.396 179.167,161.275 181.625 M270.033 181.393 C 248.939 186.627,250.044 279.200,271.201 279.200 C 282.752 279.200,289.935 256.157,288.532 223.600 C 287.290 194.783,280.304 178.844,270.033 181.393 M57.600 183.076 C 57.600 183.448,59.400 204.384,61.600 229.600 C 63.800 254.816,65.600 275.932,65.600 276.524 C 65.600 277.306,66.912 277.600,70.400 277.600 C 73.040 277.600,75.200 277.315,75.200 276.968 C 75.200 276.620,76.100 265.384,77.200 252.000 C 78.300 238.616,79.237 226.030,79.282 224.032 C 79.357 220.670,79.412 220.578,80.019 222.800 C 80.540 224.709,84.112 272.699,84.023 276.600 C 84.007 277.291,85.481 277.600,88.800 277.600 C 91.440 277.600,93.600 277.289,93.600 276.908 C 93.600 276.528,95.580 255.272,98.000 229.672 C 100.420 204.073,102.400 182.964,102.400 182.764 C 102.400 182.564,100.420 182.400,98.000 182.400 C 95.580 182.400,93.597 182.670,93.593 183.000 C 93.590 183.330,92.691 195.840,91.597 210.800 C 90.503 225.760,89.543 240.160,89.464 242.800 C 89.292 248.540,89.413 249.985,87.198 215.600 C 86.319 201.960,85.394 188.910,85.143 186.600 L 84.685 182.400 80.391 182.400 L 76.098 182.400 75.661 185.800 C 75.420 187.670,74.325 201.583,73.228 216.717 C 71.412 241.760,70.383 250.823,70.410 241.533 C 70.424 236.811,67.197 186.488,66.734 184.200 C 66.364 182.371,57.600 181.293,57.600 183.076 M105.600 230.000 L 105.600 277.600 110.000 277.600 L 114.400 277.600 114.400 230.000 L 114.400 182.400 110.000 182.400 L 105.600 182.400 105.600 230.000 M117.600 192.000 L 117.600 201.600 122.000 201.600 L 126.400 201.600 126.400 239.600 L 126.400 277.600 130.800 277.600 L 135.200 277.600 135.200 239.600 L 135.200 201.600 140.000 201.600 L 144.800 201.600 144.800 192.000 L 144.800 182.400 131.200 182.400 L 117.600 182.400 117.600 192.000 M176.800 230.000 L 176.800 277.600 181.200 277.600 L 185.600 277.600 185.600 258.000 L 185.600 238.400 191.600 238.400 L 197.600 238.400 197.600 258.000 L 197.600 277.600 202.000 277.600 L 206.400 277.600 206.400 230.000 L 206.400 182.400 202.000 182.400 L 197.600 182.400 197.600 200.800 L 197.600 219.200 191.600 219.200 L 185.600 219.200 185.600 200.800 L 185.600 182.400 181.200 182.400 L 176.800 182.400 176.800 230.000 M300.000 183.469 C 300.000 184.756,290.655 269.357,289.977 274.200 L 289.502 277.600 293.887 277.600 C 299.046 277.600,298.639 278.531,300.088 263.400 L 301.027 253.600 305.595 253.600 L 310.163 253.600 311.126 263.400 C 312.623 278.626,312.179 277.600,317.264 277.600 C 321.163 277.600,321.600 277.427,321.600 275.885 C 321.600 274.232,312.526 192.724,311.571 185.800 L 311.102 182.400 305.551 182.400 C 301.453 182.400,300.000 182.680,300.000 183.469 M328.000 183.116 L 326.000 183.672 325.794 230.636 L 325.587 277.600 329.994 277.600 L 334.400 277.600 334.400 259.200 C 334.400 241.733,334.476 240.800,335.902 240.800 C 339.231 240.800,340.238 244.423,342.011 262.776 C 343.562 278.830,343.027 277.600,348.462 277.600 C 352.580 277.600,352.807 277.497,352.422 275.800 C 352.198 274.810,351.469 268.420,350.802 261.600 C 349.254 245.775,348.101 238.571,346.664 235.762 C 345.618 233.716,345.691 233.161,347.521 229.293 C 354.073 215.445,351.532 188.649,343.201 183.728 C 340.865 182.348,332.039 181.992,328.000 183.116 M357.800 183.225 L 356.000 183.948 356.000 230.759 L 356.000 277.570 357.800 277.939 C 366.139 279.649,370.889 278.875,375.531 275.048 C 391.700 261.721,391.156 194.109,374.799 183.999 C 371.987 182.261,361.397 181.779,357.800 183.225 M340.278 201.009 C 345.079 207.446,341.985 224.800,336.036 224.800 C 334.031 224.800,333.415 199.740,335.400 198.921 C 337.212 198.173,338.608 198.770,340.278 201.009 M274.636 201.062 C 283.247 214.204,279.690 266.660,270.564 261.118 C 262.441 256.185,261.496 209.313,269.345 200.640 C 271.127 198.670,273.176 198.834,274.636 201.062 M371.441 200.818 C 382.755 209.717,379.461 259.012,367.400 261.306 L 364.800 261.800 364.800 231.033 C 364.800 214.112,365.040 200.027,365.333 199.733 C 366.380 198.687,369.418 199.226,371.441 200.818 M307.226 221.307 C 308.076 229.168,308.778 235.870,308.786 236.200 C 308.794 236.530,307.310 236.800,305.489 236.800 L 302.177 236.800 302.627 233.000 C 302.874 230.910,303.534 224.080,304.093 217.822 C 304.653 211.564,305.239 206.572,305.396 206.729 C 305.552 206.886,306.376 213.446,307.226 221.307 M233.525 220.460 C 242.758 228.228,238.815 256.000,228.480 256.000 L 225.600 256.000 225.600 237.200 L 225.600 218.400 228.339 218.400 C 230.114 218.400,231.938 219.125,233.525 220.460 " stroke="none" fill="#000000" fill-rule="evenodd"></path></g></svg>