<svg id="svg" xmlns="http://www.w3.org/2000/svg" xmlns:xlink="http://www.w3.org/1999/xlink" width="400" height="344" viewBox="0, 0, 400,344"><g id="svgg"><path id="path0" d="M99.491 171.138 C 44.771 265.264,0.000 342.664,0.000 343.138 C 0.000 343.612,90.000 344.000,200.000 344.000 C 310.000 344.000,400.000 343.620,400.000 343.156 C 400.000 341.461,200.987 0.000,200.000 0.000 C 199.440 0.000,154.211 77.012,99.491 171.138 M297.333 174.084 C 297.333 175.321,200.723 341.294,200.000 341.300 C 199.283 341.305,102.667 175.314,102.667 174.076 C 102.667 173.668,146.467 173.333,200.000 173.333 C 253.533 173.333,297.333 173.671,297.333 174.084 " stroke="none" fill="#000000" fill-rule="evenodd"></path></g></svg>