<svg id="svg" xmlns="http://www.w3.org/2000/svg" xmlns:xlink="http://www.w3.org/1999/xlink" width="400" height="400" viewBox="0, 0, 400,400"><g id="svgg"><path id="path0" d="M312.393 47.398 C 298.801 57.054,289.608 63.707,289.401 64.041 C 288.915 64.825,288.782 67.934,289.199 68.770 C 289.366 69.104,289.423 69.440,289.329 69.530 C 289.023 69.821,55.853 235.547,55.749 235.547 C 55.640 235.547,55.486 235.425,54.629 234.665 C 54.328 234.398,54.020 234.173,53.945 234.165 C 53.870 234.157,53.633 234.110,53.418 234.061 C 50.379 233.368,53.211 231.639,27.832 249.688 C 15.479 258.474,5.259 265.805,5.123 265.979 C 4.321 267.004,4.161 270.898,4.887 271.731 C 5.003 271.864,5.661 272.764,6.351 273.730 C 7.040 274.697,7.683 275.582,7.779 275.696 C 7.876 275.810,8.069 276.116,8.208 276.375 C 8.346 276.635,8.556 276.948,8.673 277.072 C 8.791 277.195,9.019 277.489,9.180 277.725 C 9.681 278.460,11.891 281.532,12.076 281.751 C 12.173 281.865,12.366 282.171,12.504 282.430 C 12.643 282.690,12.853 283.003,12.970 283.126 C 13.088 283.250,13.315 283.544,13.477 283.780 C 13.978 284.515,16.188 287.587,16.373 287.805 C 16.470 287.919,16.662 288.225,16.801 288.485 C 16.940 288.744,17.150 289.058,17.267 289.181 C 17.384 289.304,17.612 289.599,17.773 289.835 C 18.137 290.367,20.438 293.581,20.648 293.848 C 20.732 293.955,21.064 294.438,21.387 294.922 C 21.709 295.405,22.061 295.900,22.168 296.021 C 22.275 296.142,22.495 296.436,22.656 296.675 C 23.143 297.395,25.358 300.474,25.550 300.696 C 25.648 300.810,25.842 301.116,25.981 301.375 C 26.120 301.635,26.330 301.948,26.447 302.072 C 26.564 302.195,26.792 302.491,26.953 302.729 C 27.440 303.450,29.655 306.528,29.847 306.751 C 29.945 306.865,30.139 307.171,30.278 307.430 C 30.417 307.690,30.626 308.003,30.744 308.126 C 30.861 308.250,31.089 308.544,31.250 308.780 C 31.751 309.515,33.962 312.587,34.147 312.805 C 34.243 312.919,34.436 313.225,34.575 313.485 C 34.714 313.744,34.923 314.058,35.041 314.181 C 35.158 314.304,35.386 314.599,35.547 314.835 C 35.910 315.367,38.212 318.581,38.421 318.848 C 38.505 318.955,38.838 319.438,39.160 319.922 C 39.482 320.405,39.816 320.889,39.902 320.996 C 40.112 321.258,42.404 324.459,42.773 325.005 C 42.935 325.243,43.154 325.538,43.262 325.659 C 43.369 325.780,43.721 326.274,44.043 326.758 C 44.365 327.241,44.699 327.725,44.784 327.832 C 44.870 327.939,45.373 328.643,45.902 329.395 C 46.430 330.146,46.976 330.909,47.113 331.089 C 47.251 331.269,47.495 331.605,47.656 331.836 C 48.130 332.516,50.363 335.627,50.530 335.840 C 50.615 335.947,50.947 336.431,51.270 336.914 C 51.592 337.397,51.926 337.881,52.012 337.988 C 52.098 338.096,52.732 338.975,53.421 339.941 C 54.110 340.908,54.743 341.787,54.827 341.895 C 54.912 342.002,55.244 342.485,55.566 342.969 C 55.889 343.452,56.222 343.936,56.306 344.043 C 56.650 344.478,59.312 348.194,59.762 348.865 C 60.028 349.261,60.278 349.552,60.319 349.512 C 60.360 349.471,60.573 349.605,60.793 349.810 C 61.012 350.014,61.267 350.136,61.358 350.079 C 61.449 350.023,61.523 350.065,61.523 350.172 C 61.523 350.279,61.677 350.364,61.865 350.361 C 62.053 350.359,62.651 350.483,63.193 350.638 C 63.735 350.793,64.412 350.908,64.696 350.893 C 65.721 350.838,110.706 318.633,110.930 317.794 C 111.277 316.495,111.313 315.000,111.024 313.892 C 110.799 313.025,110.791 312.763,110.986 312.586 C 111.121 312.465,163.680 275.085,227.785 229.519 C 344.069 146.866,344.341 146.674,344.826 146.992 C 345.094 147.167,345.313 147.378,345.313 147.460 C 345.313 147.581,346.296 148.084,346.680 148.159 C 346.733 148.170,346.909 148.229,347.070 148.291 C 347.231 148.354,347.495 148.413,347.656 148.423 C 347.817 148.433,348.350 148.476,348.840 148.517 L 349.731 148.592 372.367 132.501 C 384.817 123.650,395.087 116.258,395.191 116.073 C 395.385 115.725,395.746 114.185,395.753 113.672 C 395.766 112.681,395.604 111.203,395.463 111.036 C 395.166 110.685,392.496 106.957,391.894 106.055 C 391.572 105.571,391.221 105.077,391.113 104.956 C 391.006 104.834,390.786 104.540,390.625 104.301 C 390.464 104.062,389.849 103.194,389.258 102.372 C 388.667 101.551,387.920 100.483,387.598 100.000 C 387.275 99.517,386.924 99.022,386.816 98.901 C 386.709 98.780,386.489 98.487,386.328 98.251 C 385.827 97.517,383.617 94.445,383.432 94.226 C 383.335 94.112,383.142 93.806,383.003 93.546 C 382.864 93.287,382.655 92.974,382.538 92.850 C 382.420 92.727,382.192 92.433,382.031 92.196 C 381.530 91.462,379.320 88.390,379.135 88.171 C 379.038 88.057,378.845 87.751,378.707 87.492 C 378.568 87.232,378.358 86.919,378.241 86.796 C 378.123 86.672,377.896 86.378,377.734 86.142 C 377.371 85.609,375.070 82.396,374.860 82.129 C 374.776 82.021,374.443 81.538,374.121 81.055 C 373.799 80.571,373.466 80.088,373.381 79.980 C 372.985 79.477,370.345 75.782,369.824 75.000 C 369.502 74.517,369.150 74.022,369.043 73.901 C 368.936 73.780,368.716 73.486,368.555 73.247 C 368.068 72.527,365.852 69.448,365.661 69.226 C 365.563 69.112,365.369 68.806,365.230 68.546 C 365.091 68.287,364.881 67.974,364.764 67.850 C 364.647 67.727,364.419 67.431,364.258 67.193 C 363.771 66.472,361.556 63.394,361.364 63.171 C 361.266 63.057,361.072 62.751,360.933 62.492 C 360.794 62.232,360.585 61.919,360.467 61.796 C 360.350 61.672,360.122 61.378,359.961 61.142 C 359.460 60.407,357.249 57.335,357.064 57.117 C 356.968 57.002,356.775 56.697,356.636 56.437 C 356.497 56.177,356.288 55.864,356.170 55.741 C 356.053 55.618,355.825 55.323,355.664 55.087 C 355.163 54.352,352.953 51.281,352.768 51.062 C 352.671 50.948,352.478 50.642,352.339 50.382 C 352.200 50.123,351.991 49.809,351.873 49.686 C 351.756 49.563,351.528 49.269,351.367 49.032 C 351.206 48.796,350.547 47.871,349.902 46.976 C 349.258 46.082,348.599 45.158,348.438 44.922 C 348.276 44.687,347.991 44.314,347.803 44.093 C 347.615 43.871,347.461 43.629,347.461 43.555 C 347.461 43.480,347.307 43.238,347.119 43.017 C 346.931 42.796,346.646 42.422,346.484 42.187 C 345.926 41.372,343.769 38.378,343.591 38.171 C 343.493 38.057,343.299 37.751,343.160 37.492 C 343.021 37.232,342.811 36.919,342.694 36.796 C 342.576 36.672,342.349 36.376,342.188 36.138 C 341.146 34.597,339.452 32.363,339.447 32.523 C 339.444 32.629,339.351 32.559,339.240 32.369 C 339.129 32.179,338.956 32.074,338.855 32.136 C 338.754 32.199,338.672 32.151,338.672 32.031 C 338.672 31.911,338.586 31.866,338.481 31.931 C 338.375 31.996,338.134 31.966,337.943 31.864 C 337.566 31.663,336.572 31.447,335.635 31.364 C 335.125 31.319,331.834 33.589,312.393 47.398 M293.177 75.025 C 293.362 75.369,295.004 77.693,295.945 78.940 C 296.080 79.120,296.323 79.457,296.484 79.688 C 296.958 80.368,299.192 83.479,299.358 83.691 C 299.443 83.799,299.775 84.282,300.098 84.766 C 300.420 85.249,300.754 85.732,300.840 85.840 C 300.926 85.947,301.560 86.826,302.249 87.793 C 302.938 88.760,303.571 89.639,303.655 89.746 C 303.740 89.854,304.072 90.337,304.395 90.820 C 304.717 91.304,305.050 91.787,305.134 91.895 C 305.531 92.398,308.170 96.093,308.692 96.875 C 309.014 97.358,309.347 97.842,309.431 97.949 C 309.828 98.452,312.467 102.148,312.988 102.930 C 313.557 103.782,313.751 104.050,314.160 104.548 C 314.268 104.678,314.724 105.319,315.174 105.972 L 315.993 107.159 265.322 143.179 C 234.175 165.320,214.650 179.319,214.650 179.511 C 214.649 179.683,214.802 180.004,214.990 180.225 C 215.178 180.447,215.464 180.820,215.625 181.055 C 215.786 181.289,216.167 181.825,216.472 182.245 L 217.027 183.009 218.132 182.232 C 218.741 181.805,241.606 165.552,268.945 146.116 C 310.607 116.496,318.682 110.828,318.833 111.097 C 319.016 111.419,321.127 114.372,321.452 114.758 C 321.548 114.873,321.741 115.178,321.879 115.438 C 322.018 115.698,322.228 116.011,322.345 116.134 C 322.463 116.257,322.690 116.552,322.852 116.788 C 323.353 117.523,325.563 120.594,325.748 120.813 C 325.845 120.927,326.037 121.233,326.176 121.493 C 326.315 121.752,326.525 122.066,326.642 122.189 C 326.759 122.312,326.987 122.606,327.148 122.843 C 327.512 123.375,329.813 126.589,330.023 126.855 C 330.107 126.963,330.439 127.446,330.762 127.930 C 331.084 128.413,331.417 128.896,331.502 129.004 C 331.898 129.507,334.538 133.203,335.059 133.984 C 335.381 134.468,335.732 134.962,335.840 135.083 C 335.947 135.205,336.167 135.499,336.328 135.737 C 336.864 136.530,339.040 139.547,339.249 139.788 C 339.362 139.918,339.556 140.247,339.681 140.520 C 339.805 140.793,339.966 141.016,340.039 141.016 C 340.112 141.016,340.264 141.219,340.377 141.467 C 340.575 141.900,335.931 145.226,223.954 224.839 L 107.324 307.759 107.052 307.255 C 106.902 306.978,106.682 306.649,106.563 306.524 C 106.445 306.400,106.216 306.103,106.055 305.865 C 105.568 305.144,103.352 302.065,103.161 301.843 C 103.063 301.729,102.869 301.423,102.730 301.164 C 102.591 300.904,102.381 300.591,102.264 300.467 C 102.147 300.344,101.919 300.048,101.758 299.810 C 101.388 299.263,99.096 296.063,98.887 295.801 C 98.801 295.693,98.467 295.210,98.145 294.727 C 97.822 294.243,97.488 293.760,97.402 293.652 C 97.316 293.545,96.681 292.666,95.990 291.699 C 95.299 290.732,94.622 289.789,94.486 289.603 C 94.350 289.416,93.931 288.822,93.555 288.282 C 93.179 287.742,92.344 286.562,91.699 285.661 C 91.055 284.759,90.396 283.830,90.234 283.595 C 90.073 283.360,89.326 282.319,88.574 281.281 C 87.822 280.244,86.943 278.999,86.621 278.516 C 85.993 277.574,85.784 277.290,85.400 276.863 C 85.266 276.713,85.159 276.518,85.161 276.430 C 85.164 276.342,109.026 259.312,138.189 238.585 C 167.351 217.859,191.211 200.784,191.211 200.642 C 191.211 200.500,190.670 199.642,190.009 198.735 L 188.807 197.087 188.205 197.518 C 143.857 229.317,82.483 272.621,82.227 272.296 C 82.065 272.091,81.802 271.730,81.641 271.494 C 81.479 271.258,81.235 270.917,81.097 270.737 C 80.959 270.557,80.281 269.619,79.590 268.652 C 78.899 267.686,78.255 266.801,78.158 266.687 C 78.062 266.573,77.869 266.267,77.730 266.007 C 77.591 265.748,77.381 265.434,77.264 265.311 C 77.147 265.188,76.919 264.894,76.758 264.657 C 76.395 264.125,74.093 260.911,73.884 260.645 C 73.799 260.537,73.467 260.054,73.145 259.570 C 72.822 259.087,72.489 258.604,72.405 258.496 C 72.008 257.993,69.369 254.297,68.848 253.516 C 68.525 253.032,68.192 252.549,68.108 252.441 C 67.711 251.938,65.072 248.243,64.551 247.461 C 64.228 246.978,63.877 246.483,63.770 246.362 C 63.662 246.241,63.442 245.947,63.281 245.708 C 62.784 244.972,60.577 241.907,60.382 241.681 C 60.281 241.563,60.063 241.207,59.898 240.888 L 59.599 240.310 176.136 157.459 C 240.231 111.892,292.736 74.609,292.814 74.609 C 292.892 74.609,293.055 74.796,293.177 75.025 M194.716 155.290 C 194.705 155.763,194.659 157.036,194.420 163.574 C 194.350 165.508,194.307 167.597,194.326 168.216 C 194.382 170.065,194.158 170.428,193.396 169.719 C 193.161 169.500,192.969 169.366,192.969 169.421 C 192.969 169.569,188.977 167.520,188.897 167.332 C 188.860 167.244,187.849 166.681,186.651 166.082 C 185.453 165.483,184.409 164.883,184.331 164.748 C 184.168 164.468,183.043 163.962,182.900 164.106 C 182.796 164.209,183.116 165.742,184.011 169.434 C 184.323 170.723,184.620 172.129,184.671 172.559 C 184.722 172.988,184.993 174.158,185.273 175.159 C 185.873 177.301,185.921 177.191,184.570 176.758 C 183.979 176.569,183.430 176.453,183.350 176.500 C 183.269 176.547,183.097 176.520,182.968 176.440 C 182.758 176.310,181.975 176.161,181.299 176.121 C 181.165 176.113,181.055 176.028,181.055 175.932 C 181.055 175.837,180.967 175.813,180.859 175.879 C 180.752 175.945,180.558 175.934,180.429 175.854 C 180.205 175.716,179.345 175.559,178.711 175.541 C 178.550 175.536,178.314 175.451,178.187 175.351 C 178.060 175.251,177.664 175.132,177.308 175.086 C 176.952 175.040,176.440 174.953,176.172 174.893 C 174.217 174.456,173.958 174.565,174.658 175.530 C 174.900 175.863,175.229 176.327,175.391 176.561 C 175.552 176.795,176.175 177.660,176.775 178.484 C 177.375 179.307,177.980 180.200,178.121 180.469 C 178.425 181.051,179.724 183.064,179.885 183.203 C 179.947 183.257,180.366 183.872,180.817 184.570 C 182.104 186.564,183.278 188.289,183.545 188.576 C 183.948 189.010,183.840 189.058,182.666 188.966 C 180.489 188.794,178.988 188.684,177.441 188.581 C 174.580 188.392,173.545 188.313,172.412 188.197 C 171.547 188.109,171.289 188.143,171.289 188.345 C 171.289 188.489,171.399 188.617,171.533 188.629 C 172.017 188.673,172.760 188.823,173.047 188.936 C 173.334 189.049,173.925 189.177,175.098 189.380 C 175.420 189.436,176.058 189.606,176.516 189.759 C 176.974 189.911,177.633 190.076,177.981 190.126 C 178.889 190.254,179.465 190.390,179.688 190.527 C 179.898 190.658,180.463 190.795,181.287 190.917 C 181.575 190.959,182.190 191.100,182.654 191.229 C 183.117 191.359,183.672 191.489,183.887 191.519 C 184.102 191.549,184.849 191.715,185.547 191.888 C 186.245 192.061,186.971 192.238,187.159 192.282 C 187.347 192.325,187.583 192.411,187.683 192.473 C 187.782 192.534,187.923 192.488,187.997 192.369 C 188.134 192.147,187.516 190.820,187.275 190.820 C 187.201 190.820,187.038 190.513,186.914 190.137 C 186.790 189.761,186.613 189.453,186.521 189.453 C 186.430 189.453,186.293 189.255,186.218 189.014 C 186.143 188.772,185.911 188.333,185.703 188.037 C 185.495 187.742,185.389 187.500,185.466 187.500 C 185.544 187.500,185.471 187.346,185.304 187.158 C 185.018 186.836,184.841 186.542,183.635 184.375 C 181.995 181.429,181.373 180.360,181.251 180.273 C 181.006 180.100,180.608 179.239,180.839 179.382 C 181.083 179.533,181.639 179.665,182.595 179.800 C 182.959 179.851,183.333 179.940,183.425 179.997 C 183.623 180.119,184.229 180.258,185.105 180.382 C 185.453 180.432,186.112 180.597,186.570 180.749 C 188.713 181.462,189.073 181.150,188.472 179.100 C 188.278 178.440,188.013 176.722,187.794 174.707 C 187.735 174.170,187.600 173.461,187.493 173.132 C 187.250 172.384,186.945 169.922,187.095 169.923 C 187.259 169.924,188.558 170.728,188.672 170.899 C 188.726 170.979,189.670 171.496,190.771 172.048 C 191.873 172.599,192.773 173.135,192.773 173.238 C 192.773 173.341,192.905 173.375,193.066 173.313 C 193.228 173.251,193.359 173.298,193.359 173.417 C 193.359 173.536,193.491 173.633,193.652 173.633 C 193.813 173.633,193.945 173.726,193.945 173.840 C 193.945 173.953,194.033 173.992,194.141 173.926 C 194.248 173.859,194.336 173.903,194.336 174.023 C 194.336 174.144,194.416 174.192,194.515 174.131 C 194.613 174.071,194.723 174.087,194.759 174.169 C 194.845 174.362,196.271 175.087,196.361 174.983 C 196.444 174.889,197.294 168.385,197.355 167.383 C 197.378 167.007,197.473 166.260,197.565 165.723 C 197.658 165.186,197.716 164.680,197.695 164.600 C 197.674 164.519,197.744 164.453,197.852 164.453 C 197.959 164.453,198.047 164.525,198.047 164.613 C 198.047 164.701,198.522 165.294,199.103 165.932 C 199.684 166.569,200.409 167.385,200.714 167.745 C 201.020 168.105,201.489 168.647,201.758 168.948 C 202.026 169.249,202.598 169.915,203.027 170.427 C 203.457 170.939,203.989 171.556,204.209 171.798 C 204.429 172.040,204.956 172.650,205.381 173.153 C 205.805 173.657,206.372 174.316,206.641 174.619 C 206.909 174.921,207.305 175.384,207.520 175.647 C 207.734 175.911,207.955 176.101,208.009 176.069 C 208.086 176.025,208.099 161.352,208.024 157.926 C 207.988 156.253,207.581 158.099,206.557 164.582 C 206.402 165.566,206.190 166.708,206.087 167.121 C 205.984 167.533,205.893 168.204,205.885 168.611 C 205.857 170.060,205.618 170.050,204.577 168.554 C 204.047 167.792,203.459 166.984,203.271 166.758 C 203.083 166.532,202.930 166.285,202.930 166.211 C 202.930 166.136,202.776 165.894,202.588 165.673 C 202.400 165.452,202.114 165.080,201.953 164.847 C 201.361 163.990,199.227 161.029,199.057 160.828 C 198.960 160.713,198.767 160.408,198.628 160.148 C 198.489 159.888,198.280 159.575,198.163 159.452 C 198.045 159.328,197.817 159.034,197.656 158.798 C 197.177 158.096,194.958 155.049,194.838 154.929 C 194.777 154.868,194.722 155.030,194.716 155.290 M217.855 187.765 C 217.749 188.041,218.169 188.864,218.699 189.418 C 218.834 189.560,218.945 189.796,218.945 189.941 C 218.945 190.087,219.071 190.332,219.224 190.485 C 219.377 190.638,219.645 191.062,219.820 191.427 C 220.340 192.510,220.779 193.244,221.554 194.323 C 221.957 194.884,222.375 195.534,222.482 195.767 C 222.589 196.001,222.891 196.543,223.153 196.973 C 223.415 197.402,223.772 198.062,223.946 198.438 C 224.120 198.813,224.337 199.168,224.428 199.226 C 224.520 199.283,224.734 199.665,224.905 200.073 C 225.104 200.551,225.132 200.765,224.983 200.673 C 224.856 200.595,224.610 200.516,224.436 200.499 C 224.263 200.481,223.768 200.364,223.336 200.238 C 222.904 200.112,222.234 199.969,221.847 199.919 C 221.460 199.869,220.715 199.695,220.191 199.531 C 219.667 199.367,218.975 199.191,218.652 199.140 C 218.330 199.088,217.869 199.003,217.629 198.949 C 217.230 198.860,217.194 198.919,217.221 199.621 C 217.238 200.044,217.316 200.391,217.394 200.391 C 217.473 200.391,217.533 200.588,217.528 200.830 C 217.513 201.544,217.959 204.599,218.166 205.204 C 218.369 205.794,218.452 206.425,218.638 208.789 C 218.701 209.595,218.701 210.144,218.638 210.010 C 218.574 209.875,218.445 209.766,218.350 209.766 C 218.255 209.766,216.988 209.106,215.534 208.301 C 214.080 207.495,212.802 206.836,212.695 206.836 C 212.588 206.836,212.500 206.743,212.500 206.629 C 212.500 206.515,212.411 206.477,212.303 206.544 C 212.195 206.611,212.054 206.528,211.990 206.361 C 211.926 206.194,211.794 206.106,211.698 206.165 C 211.602 206.224,211.523 206.175,211.523 206.055 C 211.523 205.935,211.436 205.891,211.328 205.957 C 211.221 206.023,211.133 206.001,211.133 205.907 C 211.133 205.765,209.925 205.078,209.675 205.078 C 209.478 205.078,208.360 213.162,208.219 215.607 C 208.210 215.759,207.920 215.553,207.568 215.145 C 207.219 214.739,206.670 214.112,206.348 213.750 C 206.025 213.389,205.498 212.779,205.176 212.396 C 204.854 212.013,204.370 211.452,204.102 211.148 C 203.833 210.845,203.350 210.270,203.027 209.870 C 202.705 209.470,202.178 208.856,201.855 208.506 C 200.314 206.831,199.758 206.169,199.336 205.505 C 197.824 203.125,197.835 203.078,197.832 211.939 C 197.828 224.045,197.850 224.394,198.405 221.094 C 199.263 215.992,199.682 213.578,199.924 212.342 C 200.078 211.556,200.156 210.837,200.099 210.744 C 200.041 210.650,200.093 210.513,200.214 210.438 C 200.335 210.363,200.509 210.423,200.600 210.571 C 200.864 210.998,203.483 214.681,203.848 215.137 C 203.934 215.244,204.268 215.728,204.590 216.211 C 204.912 216.694,205.246 217.178,205.332 217.285 C 205.524 217.525,207.799 220.698,208.203 221.290 C 208.364 221.525,208.804 222.146,209.180 222.668 C 209.556 223.191,210.124 223.991,210.443 224.448 L 211.022 225.278 211.173 224.602 C 211.256 224.230,211.314 223.398,211.300 222.754 C 211.287 222.109,211.344 219.824,211.426 217.676 C 211.508 215.527,211.597 212.979,211.624 212.012 C 211.650 211.045,211.683 210.184,211.695 210.099 C 211.724 209.910,215.625 211.891,215.625 212.095 C 215.625 212.174,215.755 212.240,215.915 212.240 C 216.297 212.240,217.578 212.934,217.578 213.142 C 217.578 213.231,217.656 213.256,217.750 213.198 C 217.845 213.139,218.142 213.264,218.411 213.475 C 218.679 213.686,219.832 214.351,220.973 214.952 C 223.114 216.080,223.284 216.079,222.855 214.949 C 222.749 214.671,222.569 213.852,222.454 213.130 C 222.340 212.407,222.067 211.113,221.846 210.254 C 221.626 209.395,221.442 208.560,221.438 208.398 C 221.434 208.237,221.371 208.018,221.298 207.910 C 221.225 207.803,221.149 207.467,221.130 207.164 C 221.095 206.602,220.474 204.088,220.216 203.465 C 220.054 203.074,220.738 203.097,222.304 203.535 C 222.767 203.664,223.320 203.793,223.535 203.822 C 223.750 203.851,224.189 203.930,224.512 203.998 C 224.834 204.065,225.282 204.146,225.507 204.178 C 225.732 204.210,226.037 204.311,226.184 204.402 C 226.332 204.493,226.675 204.592,226.947 204.622 C 227.685 204.702,228.418 204.827,228.418 204.874 C 228.418 204.897,228.594 204.944,228.809 204.979 C 229.023 205.014,229.397 205.095,229.639 205.158 C 229.880 205.222,230.254 205.312,230.469 205.360 C 230.685 205.408,230.931 205.490,231.016 205.542 C 231.814 206.036,231.163 203.704,230.286 202.930 C 230.100 202.765,229.260 201.554,227.984 199.609 C 227.314 198.589,226.654 197.601,226.518 197.415 C 225.889 196.557,223.194 192.530,222.351 191.189 C 222.234 191.003,226.188 191.232,231.055 191.691 C 233.971 191.966,234.570 191.963,234.570 191.669 C 234.570 191.515,234.460 191.410,234.326 191.436 C 234.192 191.462,233.906 191.425,233.691 191.355 C 233.292 191.223,232.436 191.037,231.738 190.930 C 231.523 190.897,231.348 190.852,231.348 190.830 C 231.348 190.808,231.216 190.763,231.055 190.730 C 230.894 190.697,230.383 190.567,229.919 190.441 C 229.456 190.316,228.841 190.178,228.552 190.135 C 227.729 190.014,227.164 189.876,226.953 189.746 C 226.729 189.607,226.152 189.472,225.223 189.341 C 224.862 189.290,224.415 189.167,224.228 189.068 C 224.042 188.968,223.459 188.829,222.931 188.758 C 222.404 188.688,221.621 188.514,221.191 188.372 C 220.762 188.231,220.146 188.069,219.824 188.014 C 218.869 187.850,218.370 187.725,218.162 187.596 C 218.054 187.530,217.916 187.606,217.855 187.765 " stroke="none" fill="#000000" fill-rule="evenodd"></path></g></svg>