<svg id="svg" version="1.1" xmlns="http://www.w3.org/2000/svg" xmlns:xlink="http://www.w3.org/1999/xlink" width="400" height="400" viewBox="0, 0, 400,400"><g id="svgg"><path id="path0" d="M334.623 29.674 C 333.632 29.927,288.164 62.489,287.833 63.183 C 287.364 64.165,287.046 66.286,287.158 67.681 L 287.256 68.903 171.559 151.157 L 55.861 233.411 55.314 233.007 C 54.301 232.258,50.963 231.624,49.992 231.996 C 48.818 232.445,3.808 264.666,3.393 265.354 C 2.722 266.465,2.478 269.091,2.864 271.047 C 3.046 271.969,3.316 272.546,3.958 273.391 C 4.427 274.007,5.286 275.215,5.867 276.074 C 6.448 276.934,7.417 278.296,8.020 279.102 C 8.623 279.907,9.715 281.445,10.446 282.520 C 11.177 283.594,12.144 284.956,12.595 285.547 C 13.046 286.138,13.985 287.456,14.681 288.477 C 15.377 289.497,16.599 291.229,17.397 292.324 C 18.195 293.420,19.155 294.762,19.531 295.307 C 19.907 295.852,20.836 297.153,21.595 298.198 C 22.353 299.243,23.472 300.821,24.080 301.704 C 24.688 302.588,25.781 304.126,26.510 305.122 C 27.238 306.118,28.096 307.329,28.415 307.813 C 28.735 308.296,29.489 309.351,30.091 310.156 C 30.694 310.962,31.757 312.456,32.453 313.477 C 33.149 314.497,34.372 316.229,35.170 317.324 C 35.968 318.420,36.929 319.761,37.305 320.305 C 37.681 320.849,38.666 322.238,39.493 323.391 C 40.986 325.472,41.646 326.398,44.044 329.785 C 44.729 330.752,45.894 332.378,46.632 333.398 C 47.371 334.419,48.453 335.941,49.037 336.780 C 49.620 337.619,50.499 338.849,50.989 339.514 C 51.479 340.179,52.308 341.338,52.831 342.090 C 54.035 343.823,54.718 344.787,57.095 348.111 C 59.027 350.813,59.841 351.577,61.214 351.981 C 62.680 352.411,64.606 352.714,65.231 352.612 C 66.056 352.478,111.717 320.108,112.170 319.336 C 112.328 319.067,112.609 318.159,112.795 317.317 C 113.098 315.945,113.106 315.434,112.850 313.795 C 112.805 313.509,137.883 295.591,228.502 231.163 L 344.211 148.895 345.006 149.334 C 346.404 150.106,349.245 150.598,350.195 150.234 C 350.464 150.131,360.967 142.739,373.535 133.808 C 397.840 116.536,397.266 116.981,397.266 115.447 C 397.266 115.167,397.339 114.676,397.428 114.354 C 397.904 112.643,397.399 110.729,395.956 108.770 C 395.211 107.760,394.116 106.230,393.521 105.371 C 392.072 103.276,388.961 98.898,387.560 96.984 C 386.936 96.131,385.821 94.549,385.081 93.468 C 384.342 92.388,383.367 91.021,382.914 90.430 C 382.462 89.839,381.523 88.521,380.827 87.500 C 380.131 86.479,378.909 84.748,378.111 83.652 C 377.313 82.557,376.353 81.214,375.977 80.669 C 375.601 80.125,374.672 78.824,373.913 77.779 C 373.154 76.734,372.047 75.176,371.452 74.316 C 370.112 72.381,367.134 68.192,365.042 65.300 C 364.174 64.100,363.073 62.535,362.594 61.821 C 362.115 61.107,361.341 60.023,360.873 59.412 C 360.405 58.801,359.424 57.422,358.694 56.348 C 357.964 55.273,356.997 53.911,356.546 53.320 C 356.094 52.729,355.156 51.411,354.460 50.391 C 353.764 49.370,352.542 47.639,351.744 46.543 C 350.946 45.447,349.985 44.106,349.609 43.562 C 349.233 43.018,348.237 41.629,347.395 40.476 C 346.553 39.323,345.544 37.896,345.153 37.305 C 343.581 34.929,340.659 31.122,340.153 30.790 C 339.021 30.048,335.747 29.387,334.623 29.674 M337.256 31.696 C 337.390 31.701,337.500 31.779,337.500 31.868 C 337.500 31.958,337.566 32.011,337.646 31.986 C 338.471 31.734,339.666 32.772,341.409 35.254 C 342.088 36.221,345.238 40.659,348.409 45.117 C 355.509 55.099,369.990 75.469,377.706 86.328 C 380.874 90.786,386.055 98.074,389.220 102.524 C 396.419 112.645,395.788 111.555,395.631 113.602 C 395.561 114.515,395.380 115.501,395.229 115.793 C 395.049 116.141,387.200 121.835,372.432 132.332 L 349.909 148.340 348.831 148.296 C 348.239 148.273,347.602 148.245,347.416 148.235 C 347.230 148.225,347.027 148.135,346.965 148.034 C 346.903 147.934,346.694 147.852,346.501 147.852 C 346.308 147.852,345.756 147.551,345.274 147.183 L 344.398 146.514 228.004 229.263 C 92.023 325.936,110.449 312.771,110.658 313.105 C 111.094 313.804,111.219 316.228,110.884 317.480 L 110.622 318.457 87.879 334.634 L 65.137 350.811 64.258 350.698 C 62.959 350.530,62.566 350.440,62.148 350.216 C 61.940 350.105,61.715 350.069,61.647 350.137 C 61.579 350.205,61.523 350.176,61.523 350.072 C 61.523 349.968,61.238 349.775,60.889 349.643 C 60.378 349.449,59.587 348.459,56.842 344.574 C 54.966 341.919,50.960 336.274,47.942 332.031 C 44.923 327.788,40.490 321.548,38.090 318.164 C 35.691 314.780,33.315 311.440,32.811 310.742 C 32.306 310.044,29.288 305.803,26.103 301.318 C 19.062 291.403,9.441 277.869,6.710 274.037 C 4.432 270.842,4.301 270.454,4.638 267.902 C 4.897 265.941,2.139 268.088,27.982 249.723 L 50.398 233.793 51.322 233.881 C 51.830 233.929,52.378 234.002,52.539 234.044 C 52.700 234.085,53.096 234.188,53.418 234.273 C 53.740 234.358,54.409 234.715,54.904 235.065 L 55.804 235.701 172.287 152.889 C 236.352 107.343,288.978 69.926,289.232 69.741 C 289.609 69.467,289.657 69.335,289.489 69.029 C 288.890 67.933,288.809 66.039,289.298 64.546 C 289.539 63.812,290.716 62.943,312.012 47.789 C 336.776 30.168,334.917 31.417,336.133 31.573 C 336.616 31.635,337.122 31.690,337.256 31.696 M176.367 157.161 C 112.397 202.654,59.897 239.993,59.700 240.135 C 59.366 240.374,59.569 240.714,62.517 244.855 C 71.329 257.231,73.149 259.789,77.619 266.076 L 82.452 272.875 83.072 272.408 C 83.877 271.801,188.307 197.577,188.608 197.398 C 188.752 197.312,189.278 197.895,190.030 198.972 L 191.223 200.684 190.803 201.027 C 190.572 201.216,166.685 218.213,137.721 238.800 C 108.757 259.386,85.027 276.256,84.988 276.288 C 84.949 276.320,87.372 279.801,90.373 284.023 C 93.374 288.245,98.358 295.259,101.448 299.609 C 104.539 303.960,107.136 307.591,107.219 307.679 C 107.322 307.788,339.860 142.729,340.789 141.887 C 340.825 141.854,340.510 141.359,340.089 140.787 C 339.396 139.845,323.315 117.245,320.067 112.646 C 319.327 111.599,318.679 110.742,318.627 110.742 C 318.575 110.742,295.724 126.958,267.847 146.777 C 239.969 166.597,217.131 182.813,217.095 182.813 C 216.935 182.812,214.648 179.455,214.726 179.335 C 214.774 179.260,237.582 163.027,265.410 143.262 C 299.585 118.989,315.986 107.229,315.942 107.031 C 315.906 106.870,313.155 102.915,309.828 98.242 C 306.501 93.569,301.344 86.318,298.367 82.129 C 295.390 77.939,292.892 74.497,292.815 74.478 C 292.739 74.460,240.337 111.667,176.367 157.161 M293.467 78.460 C 293.890 79.081,294.852 80.433,295.604 81.462 C 296.357 82.492,297.412 83.970,297.949 84.746 C 298.486 85.521,299.365 86.757,299.902 87.492 C 300.439 88.227,301.406 89.590,302.051 90.520 C 302.695 91.451,303.844 93.064,304.602 94.104 C 305.361 95.145,306.469 96.699,307.064 97.559 C 308.438 99.543,311.626 104.037,312.744 105.566 L 313.602 106.738 263.720 142.188 C 236.285 161.685,213.625 177.846,213.364 178.103 C 212.689 178.767,212.715 179.959,213.428 180.997 C 215.759 184.392,216.510 185.019,217.669 184.540 C 218.019 184.396,240.780 168.292,268.249 148.755 C 295.718 129.217,318.261 113.309,318.344 113.403 C 318.426 113.497,318.967 114.277,319.545 115.137 C 320.123 115.996,321.089 117.358,321.692 118.164 C 322.295 118.970,323.358 120.464,324.055 121.484 C 324.751 122.505,325.974 124.236,326.772 125.332 C 327.570 126.428,328.530 127.770,328.906 128.315 C 329.282 128.860,330.211 130.160,330.970 131.205 C 331.728 132.250,332.836 133.809,333.430 134.668 C 334.024 135.527,335.315 137.349,336.298 138.715 C 337.282 140.082,338.086 141.282,338.086 141.382 C 338.086 141.482,286.434 178.289,223.303 223.174 C 160.172 268.060,108.364 304.898,108.173 305.036 C 107.822 305.289,106.718 303.978,104.589 300.782 C 104.267 300.300,103.257 298.875,102.344 297.615 C 101.431 296.356,100.376 294.882,100.000 294.340 C 99.624 293.798,98.639 292.411,97.811 291.257 C 96.984 290.104,95.885 288.564,95.370 287.834 C 94.855 287.105,94.164 286.138,93.834 285.686 C 93.505 285.233,92.836 284.292,92.348 283.594 C 91.861 282.896,90.614 281.142,89.578 279.698 C 88.543 278.253,87.695 276.970,87.695 276.847 C 87.695 276.724,111.228 259.899,139.990 239.458 C 168.752 219.017,192.437 202.107,192.623 201.879 C 193.775 200.465,190.666 195.408,188.678 195.465 C 188.219 195.478,176.381 203.804,135.502 232.867 L 82.918 270.252 82.024 269.061 C 81.533 268.407,80.652 267.168,80.067 266.309 C 79.483 265.450,78.257 263.719,77.344 262.463 C 76.431 261.207,75.376 259.733,75.000 259.187 C 74.624 258.641,73.696 257.340,72.937 256.295 C 72.178 255.250,71.070 253.691,70.475 252.832 C 69.345 251.200,66.837 247.669,63.922 243.606 C 62.979 242.291,62.207 241.074,62.207 240.900 C 62.207 240.474,292.209 76.940,292.492 77.165 C 292.606 77.256,293.045 77.838,293.467 78.460 M194.434 153.281 C 193.805 153.407,193.211 154.081,193.071 154.827 C 192.945 155.503,192.893 156.672,192.680 163.656 C 192.623 165.528,192.531 167.104,192.475 167.161 C 192.356 167.279,189.884 166.043,189.725 165.786 C 189.666 165.691,188.724 165.165,187.631 164.617 C 186.539 164.070,185.400 163.416,185.101 163.166 C 184.006 162.247,182.413 162.151,181.681 162.961 C 180.927 163.796,180.955 164.108,182.249 169.434 C 182.563 170.723,182.858 172.085,182.905 172.461 C 182.952 172.837,183.046 173.473,183.114 173.875 C 183.251 174.688,183.048 174.732,181.456 174.238 C 181.085 174.123,180.396 173.982,179.924 173.926 C 179.452 173.869,178.913 173.741,178.727 173.641 C 178.541 173.542,177.999 173.412,177.524 173.354 C 177.049 173.296,176.396 173.173,176.074 173.081 C 172.926 172.181,171.637 174.227,173.602 177.005 C 174.570 178.373,176.682 181.507,177.713 183.105 C 177.990 183.535,178.537 184.326,178.929 184.863 C 179.321 185.400,179.783 186.119,179.955 186.460 L 180.268 187.080 179.636 186.985 C 179.288 186.933,178.345 186.856,177.539 186.814 C 176.733 186.771,175.371 186.679,174.512 186.608 C 170.424 186.269,169.661 186.546,169.661 188.369 C 169.661 189.921,170.067 190.140,174.707 191.101 C 175.417 191.247,178.991 192.159,179.677 192.368 C 180.047 192.481,180.737 192.619,181.209 192.676 C 181.681 192.733,182.216 192.859,182.398 192.956 C 182.579 193.053,183.121 193.189,183.600 193.258 C 184.080 193.326,185.220 193.579,186.133 193.819 C 188.098 194.335,188.442 194.304,189.166 193.549 C 189.925 192.757,189.919 191.628,189.151 190.429 C 188.479 189.379,188.146 188.798,187.508 187.555 C 187.244 187.042,186.923 186.489,186.796 186.328 C 186.551 186.019,186.107 185.253,185.024 183.266 L 184.366 182.059 184.949 182.132 C 185.270 182.173,185.953 182.350,186.467 182.527 C 189.604 183.602,190.966 182.221,190.171 178.772 C 189.875 177.484,189.783 176.878,189.541 174.618 C 189.478 174.032,189.380 173.477,189.323 173.385 C 189.266 173.293,189.749 173.484,190.396 173.811 C 191.043 174.138,191.624 174.487,191.685 174.587 C 191.973 175.052,195.621 176.651,196.351 176.631 C 197.778 176.594,198.011 176.133,198.459 172.445 C 198.674 170.681,198.913 169.077,198.991 168.880 C 199.105 168.591,199.853 169.365,202.888 172.910 C 207.663 178.489,207.822 178.596,209.252 177.167 L 209.858 176.560 209.872 167.919 C 209.891 156.288,209.786 155.625,207.923 155.625 C 206.485 155.625,206.219 156.124,205.549 160.074 C 204.887 163.973,204.542 165.784,204.514 165.508 C 204.502 165.390,203.936 164.555,203.256 163.653 C 202.576 162.750,201.449 161.177,200.753 160.156 C 196.620 154.102,195.642 153.038,194.434 153.281 M200.275 162.704 C 203.166 166.781,205.596 170.117,205.677 170.117 C 205.757 170.117,205.880 169.656,205.950 169.092 C 206.020 168.528,206.197 167.407,206.343 166.602 C 206.663 164.844,207.129 162.145,207.447 160.205 C 207.880 157.570,207.972 158.767,207.991 167.285 C 208.002 171.958,207.979 175.781,207.941 175.781 C 207.902 175.781,205.595 173.134,202.812 169.899 L 197.754 164.016 197.525 165.358 C 197.290 166.732,196.847 169.991,196.765 170.941 C 196.740 171.233,196.648 172.024,196.560 172.699 C 196.473 173.374,196.398 174.102,196.394 174.316 C 196.384 174.839,196.155 174.768,194.060 173.593 C 193.084 173.046,191.318 172.058,190.137 171.396 C 188.955 170.735,187.744 170.033,187.445 169.836 C 186.636 169.303,186.609 168.659,187.687 175.585 C 187.912 177.035,188.176 178.529,188.274 178.905 C 188.776 180.847,188.629 181.167,187.402 180.804 C 187.080 180.709,186.113 180.463,185.254 180.257 C 181.770 179.423,180.469 179.149,180.469 179.252 C 180.469 179.312,180.723 179.764,181.034 180.256 C 181.344 180.749,182.849 183.350,184.377 186.035 C 185.904 188.721,187.333 191.212,187.551 191.572 L 187.947 192.227 187.284 192.122 C 186.919 192.064,185.522 191.746,184.180 191.415 C 174.806 189.103,173.811 188.867,173.420 188.867 C 173.228 188.867,173.008 188.768,172.933 188.646 C 172.833 188.484,173.309 188.462,174.728 188.566 C 177.393 188.760,178.262 188.831,179.395 188.949 C 181.648 189.184,183.984 189.291,183.984 189.159 C 183.984 189.010,178.857 181.296,176.014 177.166 L 174.345 174.742 175.014 174.883 C 175.382 174.961,176.079 175.104,176.563 175.201 C 178.455 175.580,179.630 175.839,180.566 176.081 C 181.815 176.405,185.381 177.151,185.670 177.150 C 185.875 177.149,185.526 174.854,185.253 174.413 C 185.201 174.328,184.935 173.129,184.663 171.749 C 184.391 170.368,184.069 168.932,183.948 168.558 C 183.664 167.677,183.026 164.379,183.121 164.279 C 183.161 164.237,183.311 164.300,183.455 164.419 C 183.750 164.664,187.577 166.799,191.106 168.687 C 192.392 169.375,193.601 170.080,193.793 170.254 C 194.312 170.723,194.330 170.639,194.432 167.268 C 194.484 165.559,194.575 163.281,194.634 162.207 C 194.693 161.133,194.753 159.133,194.768 157.764 C 194.783 156.394,194.845 155.277,194.907 155.282 C 194.969 155.286,197.385 158.626,200.275 162.704 M217.654 185.897 C 216.207 186.111,215.709 188.097,216.713 189.650 C 217.025 190.132,217.392 190.747,217.529 191.016 C 217.665 191.284,217.991 191.855,218.254 192.285 C 218.516 192.715,218.843 193.286,218.981 193.555 C 219.118 193.823,219.605 194.566,220.064 195.205 C 220.523 195.844,220.898 196.441,220.898 196.531 C 220.898 196.622,221.090 196.955,221.324 197.271 C 221.924 198.083,221.784 198.110,219.605 197.595 C 215.233 196.561,214.803 197.556,216.394 205.027 C 216.582 205.912,216.695 206.677,216.645 206.727 C 216.523 206.849,215.099 206.117,213.117 204.913 C 208.603 202.172,207.919 202.682,207.200 209.326 C 206.916 211.947,207.032 211.910,205.355 209.928 C 198.549 201.889,198.669 201.997,197.177 202.620 C 196.092 203.074,196.067 203.319,196.067 213.251 C 196.067 224.316,196.090 224.453,197.976 224.453 C 199.504 224.453,199.684 224.001,200.808 217.318 L 201.263 214.617 201.657 215.103 C 201.874 215.371,202.358 216.038,202.734 216.586 C 203.360 217.498,205.580 220.614,207.005 222.578 C 207.324 223.019,207.947 223.906,208.389 224.549 C 210.932 228.256,213.209 227.335,213.067 222.656 C 213.021 221.100,213.300 213.214,213.408 213.039 C 213.564 212.787,213.814 212.871,214.418 213.379 C 214.737 213.647,215.127 213.867,215.284 213.867 C 215.442 213.867,215.894 214.087,216.290 214.355 C 216.686 214.624,217.109 214.844,217.230 214.844 C 217.351 214.844,217.588 214.968,217.758 215.121 C 218.513 215.798,222.313 217.617,222.974 217.617 C 224.415 217.617,224.998 216.392,224.513 214.384 C 224.104 212.692,222.656 205.893,222.656 205.663 C 222.656 205.421,223.953 205.579,225.067 205.957 C 225.533 206.115,226.214 206.284,226.580 206.332 C 226.947 206.381,228.037 206.610,229.004 206.843 C 234.005 208.044,234.677 205.947,230.927 200.842 C 230.299 199.987,229.478 198.782,229.102 198.164 C 228.726 197.546,228.018 196.498,227.529 195.835 C 225.656 193.294,225.566 193.009,226.660 193.086 C 227.968 193.177,230.048 193.354,231.152 193.467 C 235.179 193.883,236.198 193.526,236.198 191.699 C 236.198 190.233,235.850 190.032,231.641 189.071 C 229.653 188.616,227.658 188.124,227.207 187.976 C 226.756 187.828,226.097 187.668,225.742 187.620 C 225.388 187.573,224.790 187.438,224.414 187.321 C 224.038 187.204,223.335 187.055,222.852 186.990 C 222.368 186.925,221.893 186.824,221.796 186.765 C 221.436 186.548,218.052 185.838,217.654 185.897 M219.238 188.083 C 219.668 188.179,221.689 188.666,223.730 189.166 C 225.771 189.665,227.881 190.165,228.418 190.276 C 228.955 190.387,229.966 190.639,230.664 190.835 C 231.362 191.031,232.228 191.234,232.587 191.285 C 232.946 191.336,233.290 191.428,233.352 191.490 C 233.513 191.651,232.430 191.628,229.569 191.408 C 224.200 190.994,222.211 190.802,222.002 190.677 C 221.677 190.483,222.386 191.587,226.900 198.311 C 229.414 202.055,231.425 205.164,231.369 205.219 C 231.264 205.325,227.953 204.664,226.270 204.201 C 225.732 204.053,224.981 203.885,224.599 203.829 C 224.217 203.772,223.137 203.546,222.198 203.327 C 219.899 202.791,219.905 202.790,220.151 203.564 C 220.262 203.914,220.597 205.342,220.897 206.738 C 221.196 208.135,221.758 210.728,222.145 212.500 C 222.532 214.272,222.850 215.734,222.851 215.748 C 222.854 215.829,218.944 213.699,218.457 213.354 C 218.135 213.126,217.080 212.533,216.113 212.036 C 215.146 211.539,213.750 210.779,213.010 210.346 C 212.270 209.913,211.640 209.584,211.610 209.614 C 211.580 209.644,211.488 211.558,211.406 213.868 C 211.246 218.376,211.235 218.768,211.173 222.412 C 211.151 223.728,211.067 224.804,210.986 224.802 C 210.906 224.801,209.987 223.593,208.944 222.117 C 199.976 209.424,200.000 209.456,200.000 210.510 C 200.000 210.829,199.876 211.738,199.725 212.528 C 199.574 213.318,199.344 214.624,199.213 215.430 C 199.083 216.235,198.954 217.026,198.926 217.188 C 198.898 217.349,198.768 218.140,198.637 218.945 C 198.506 219.751,198.329 220.762,198.244 221.191 L 198.089 221.973 198.048 220.898 C 197.941 218.112,197.926 205.589,198.029 204.986 L 198.145 204.304 199.112 205.521 C 200.892 207.760,208.068 216.016,208.234 216.016 C 208.325 216.016,208.398 215.703,208.398 215.321 C 208.398 214.938,208.479 214.037,208.578 213.319 C 208.677 212.600,208.849 211.265,208.961 210.352 C 209.628 204.918,209.595 205.028,210.374 205.638 C 210.630 205.839,211.499 206.333,212.305 206.737 C 213.110 207.141,214.209 207.755,214.746 208.102 C 215.283 208.448,216.498 209.139,217.446 209.636 L 219.170 210.539 219.066 210.006 C 219.008 209.713,218.869 208.770,218.755 207.910 C 218.641 207.051,218.418 205.645,218.258 204.785 C 217.862 202.657,217.383 199.670,217.383 199.335 C 217.383 199.153,217.532 199.091,217.822 199.151 C 218.437 199.278,222.062 200.154,223.895 200.618 C 224.738 200.831,225.459 200.973,225.499 200.933 C 225.584 200.849,222.698 195.764,221.589 194.043 C 220.890 192.957,218.654 189.196,218.167 188.287 C 217.922 187.830,218.023 187.810,219.238 188.083 " stroke="none" fill="#060606" fill-rule="evenodd"></path><path id="path1" d="M334.863 31.633 C 332.948 32.482,289.527 63.846,289.298 64.546 C 288.809 66.039,288.890 67.933,289.489 69.029 C 289.657 69.335,289.609 69.467,289.232 69.741 C 288.978 69.926,236.352 107.343,172.287 152.889 L 55.804 235.701 54.904 235.065 C 54.409 234.715,53.740 234.358,53.418 234.273 C 53.096 234.188,52.700 234.085,52.539 234.044 C 52.378 234.002,51.830 233.929,51.322 233.881 L 50.398 233.793 27.982 249.723 C 2.139 268.088,4.897 265.941,4.638 267.902 C 4.301 270.454,4.432 270.842,6.710 274.037 C 9.441 277.869,19.062 291.403,26.103 301.318 C 29.288 305.803,32.306 310.044,32.811 310.742 C 33.315 311.440,35.691 314.780,38.090 318.164 C 40.490 321.548,44.923 327.788,47.942 332.031 C 50.960 336.274,54.966 341.919,56.842 344.574 C 59.587 348.459,60.378 349.449,60.889 349.643 C 61.238 349.775,61.523 349.968,61.523 350.072 C 61.523 350.176,61.579 350.205,61.647 350.137 C 61.715 350.069,61.940 350.105,62.148 350.216 C 62.566 350.440,62.959 350.530,64.258 350.698 L 65.137 350.811 87.879 334.634 L 110.622 318.457 110.884 317.480 C 111.219 316.228,111.094 313.804,110.658 313.105 C 110.449 312.771,92.023 325.936,228.004 229.263 L 344.398 146.514 345.274 147.183 C 345.756 147.551,346.308 147.852,346.501 147.852 C 346.694 147.852,346.903 147.934,346.965 148.034 C 347.027 148.135,347.230 148.225,347.416 148.235 C 347.602 148.245,348.239 148.273,348.831 148.296 L 349.909 148.340 372.432 132.332 C 387.200 121.835,395.049 116.141,395.229 115.793 C 395.380 115.501,395.561 114.515,395.631 113.602 C 395.788 111.555,396.419 112.645,389.220 102.524 C 386.055 98.074,380.874 90.786,377.706 86.328 C 369.990 75.469,355.509 55.099,348.409 45.117 C 345.238 40.659,342.088 36.221,341.409 35.254 C 339.666 32.772,338.471 31.734,337.646 31.986 C 337.566 32.011,337.500 31.958,337.500 31.868 C 337.500 31.779,337.390 31.701,337.256 31.696 C 337.122 31.690,336.616 31.635,336.133 31.573 C 335.649 31.511,335.078 31.538,334.863 31.633 M298.367 82.129 C 301.344 86.318,306.501 93.569,309.828 98.242 C 313.155 102.915,315.906 106.870,315.942 107.031 C 315.986 107.229,299.585 118.989,265.410 143.262 C 237.582 163.027,214.774 179.260,214.726 179.335 C 214.648 179.455,216.935 182.812,217.095 182.813 C 217.131 182.813,239.969 166.597,267.847 146.777 C 295.724 126.958,318.575 110.742,318.627 110.742 C 318.679 110.742,319.327 111.599,320.067 112.646 C 323.315 117.245,339.396 139.845,340.089 140.787 C 340.510 141.359,340.825 141.854,340.789 141.887 C 339.860 142.729,107.322 307.788,107.219 307.679 C 107.136 307.591,104.539 303.960,101.448 299.609 C 98.358 295.259,93.374 288.245,90.373 284.023 C 87.372 279.801,84.949 276.320,84.988 276.288 C 85.027 276.256,108.757 259.386,137.721 238.800 C 166.685 218.213,190.572 201.216,190.803 201.027 L 191.223 200.684 190.030 198.972 C 189.278 197.895,188.752 197.312,188.608 197.398 C 188.307 197.577,83.877 271.801,83.072 272.408 L 82.452 272.875 77.619 266.076 C 73.149 259.789,71.329 257.231,62.517 244.855 C 59.569 240.714,59.366 240.374,59.700 240.135 C 69.995 232.729,292.721 74.456,292.815 74.478 C 292.892 74.497,295.390 77.939,298.367 82.129 M194.768 157.764 C 194.753 159.133,194.693 161.133,194.634 162.207 C 194.575 163.281,194.484 165.559,194.432 167.268 C 194.330 170.639,194.312 170.723,193.793 170.254 C 193.601 170.080,192.392 169.375,191.106 168.687 C 187.577 166.799,183.750 164.664,183.455 164.419 C 183.311 164.300,183.161 164.237,183.121 164.279 C 183.026 164.379,183.664 167.677,183.948 168.558 C 184.069 168.932,184.391 170.368,184.663 171.749 C 184.935 173.129,185.201 174.328,185.253 174.413 C 185.526 174.854,185.875 177.149,185.670 177.150 C 185.381 177.151,181.815 176.405,180.566 176.081 C 179.630 175.839,178.455 175.580,176.563 175.201 C 176.079 175.104,175.382 174.961,175.014 174.883 L 174.345 174.742 176.014 177.166 C 178.857 181.296,183.984 189.010,183.984 189.159 C 183.984 189.291,181.648 189.184,179.395 188.949 C 178.262 188.831,177.393 188.760,174.728 188.566 C 173.309 188.462,172.833 188.484,172.933 188.646 C 173.008 188.768,173.228 188.867,173.420 188.867 C 173.811 188.867,174.806 189.103,184.180 191.415 C 185.522 191.746,186.919 192.064,187.284 192.122 L 187.947 192.227 187.551 191.572 C 187.333 191.212,185.904 188.721,184.377 186.035 C 182.849 183.350,181.344 180.749,181.034 180.256 C 180.723 179.764,180.469 179.312,180.469 179.252 C 180.469 179.149,181.770 179.423,185.254 180.257 C 186.113 180.463,187.080 180.709,187.402 180.804 C 188.629 181.167,188.776 180.847,188.274 178.905 C 188.176 178.529,187.912 177.035,187.687 175.585 C 186.609 168.659,186.636 169.303,187.445 169.836 C 187.744 170.033,188.955 170.735,190.137 171.396 C 191.318 172.058,193.084 173.046,194.060 173.593 C 196.155 174.768,196.384 174.839,196.394 174.316 C 196.398 174.102,196.473 173.374,196.560 172.699 C 196.648 172.024,196.740 171.233,196.765 170.941 C 196.847 169.991,197.290 166.732,197.525 165.358 L 197.754 164.016 202.812 169.899 C 205.595 173.134,207.902 175.781,207.941 175.781 C 207.979 175.781,208.002 171.958,207.991 167.285 C 207.972 158.767,207.880 157.570,207.447 160.205 C 207.129 162.145,206.663 164.844,206.343 166.602 C 206.197 167.407,206.020 168.528,205.950 169.092 C 205.880 169.656,205.757 170.117,205.677 170.117 C 205.596 170.117,203.166 166.781,200.275 162.704 C 197.385 158.626,194.969 155.286,194.907 155.282 C 194.845 155.277,194.783 156.394,194.768 157.764 M218.167 188.287 C 218.654 189.196,220.890 192.957,221.589 194.043 C 222.698 195.764,225.584 200.849,225.499 200.933 C 225.459 200.973,224.738 200.831,223.895 200.618 C 222.062 200.154,218.437 199.278,217.822 199.151 C 217.532 199.091,217.383 199.153,217.383 199.335 C 217.383 199.670,217.862 202.657,218.258 204.785 C 218.418 205.645,218.641 207.051,218.755 207.910 C 218.869 208.770,219.008 209.713,219.066 210.006 L 219.170 210.539 217.446 209.636 C 216.498 209.139,215.283 208.448,214.746 208.102 C 214.209 207.755,213.110 207.141,212.305 206.737 C 211.499 206.333,210.630 205.839,210.374 205.638 C 209.595 205.028,209.628 204.918,208.961 210.352 C 208.849 211.265,208.677 212.600,208.578 213.319 C 208.479 214.037,208.398 214.938,208.398 215.321 C 208.398 215.703,208.325 216.016,208.234 216.016 C 208.068 216.016,200.892 207.760,199.112 205.521 L 198.145 204.304 198.029 204.986 C 197.926 205.589,197.941 218.112,198.048 220.898 L 198.089 221.973 198.244 221.191 C 198.329 220.762,198.506 219.751,198.637 218.945 C 198.768 218.140,198.898 217.349,198.926 217.188 C 198.954 217.026,199.083 216.235,199.213 215.430 C 199.344 214.624,199.574 213.318,199.725 212.528 C 199.876 211.738,200.000 210.829,200.000 210.510 C 200.000 209.456,199.976 209.424,208.944 222.117 C 209.987 223.593,210.906 224.801,210.986 224.802 C 211.067 224.804,211.151 223.728,211.173 222.412 C 211.235 218.768,211.246 218.376,211.406 213.868 C 211.488 211.558,211.580 209.644,211.610 209.614 C 211.640 209.584,212.270 209.913,213.010 210.346 C 213.750 210.779,215.146 211.539,216.113 212.036 C 217.080 212.533,218.135 213.126,218.457 213.354 C 218.944 213.699,222.854 215.829,222.851 215.748 C 222.850 215.734,222.532 214.272,222.145 212.500 C 221.758 210.728,221.196 208.135,220.897 206.738 C 220.597 205.342,220.262 203.914,220.151 203.564 C 219.905 202.790,219.899 202.791,222.198 203.327 C 223.137 203.546,224.217 203.772,224.599 203.829 C 224.981 203.885,225.732 204.053,226.270 204.201 C 227.953 204.664,231.264 205.325,231.369 205.219 C 231.425 205.164,229.414 202.055,226.900 198.311 C 222.386 191.587,221.677 190.483,222.002 190.677 C 222.211 190.802,224.200 190.994,229.569 191.408 C 232.430 191.628,233.513 191.651,233.352 191.490 C 233.290 191.428,232.946 191.336,232.587 191.285 C 232.228 191.234,231.362 191.031,230.664 190.835 C 229.966 190.639,228.955 190.387,228.418 190.276 C 227.881 190.165,225.771 189.665,223.730 189.166 C 217.627 187.673,217.858 187.709,218.167 188.287 " stroke="none" fill="#fbfbfb" fill-rule="evenodd"></path></g></svg>