<svg id="svg" xmlns="http://www.w3.org/2000/svg" xmlns:xlink="http://www.w3.org/1999/xlink" width="400" height="400" viewBox="0, 0, 400,400"><g id="svgg"><path id="path0" d="M133.143 14.604 C 119.498 18.055,106.710 29.835,104.848 40.667 C 104.669 41.715,104.261 43.552,103.943 44.751 C 102.118 51.628,105.072 68.875,108.609 72.000 C 108.787 72.157,109.720 73.443,110.682 74.857 C 118.082 85.736,132.701 91.792,146.631 89.751 C 167.646 86.672,182.941 64.740,178.065 44.677 C 177.543 42.528,177.005 40.196,176.870 39.495 C 173.864 23.884,150.050 10.329,133.143 14.604 M40.397 69.198 C 21.970 73.534,14.301 92.760,26.047 105.174 C 26.807 105.977,27.429 106.791,27.429 106.983 C 27.429 107.175,27.929 107.932,28.541 108.666 C 29.152 109.400,31.618 112.382,34.021 115.293 C 63.709 151.266,109.036 166.908,149.327 155.085 C 152.099 154.271,154.448 153.694,154.547 153.803 C 154.770 154.047,157.697 159.305,159.747 163.143 C 160.586 164.714,161.593 166.386,161.985 166.857 C 162.377 167.329,164.057 170.286,165.720 173.429 C 167.382 176.571,169.383 180.300,170.167 181.714 C 170.951 183.129,172.306 185.571,173.179 187.143 C 177.092 194.188,185.805 210.571,191.255 221.131 C 193.279 225.053,195.206 228.589,195.537 228.988 C 195.869 229.388,195.969 229.714,195.760 229.714 C 195.551 229.714,196.038 230.837,196.842 232.208 C 198.527 235.084,198.527 235.085,193.623 237.651 C 188.213 240.483,182.119 244.072,177.143 247.357 C 174.471 249.121,171.858 250.823,171.336 251.139 C 170.475 251.661,169.386 252.412,163.320 256.672 C 162.280 257.402,161.300 258.141,161.143 258.313 C 160.986 258.485,158.286 260.588,155.143 262.986 C 152.000 265.384,148.914 267.826,148.286 268.413 C 147.657 269.000,145.059 271.314,142.512 273.555 C 134.784 280.355,133.399 283.171,133.508 291.858 C 133.636 302.023,136.522 305.249,158.857 320.189 C 169.207 327.113,168.921 326.926,184.815 337.143 C 187.504 338.871,191.185 341.238,192.995 342.402 C 194.805 343.566,198.600 345.952,201.429 347.705 C 204.257 349.458,208.204 351.912,210.200 353.160 C 212.196 354.408,213.949 355.429,214.096 355.429 C 214.242 355.429,215.183 356.055,216.186 356.820 C 226.589 364.755,238.159 364.106,246.854 355.101 C 258.991 342.531,256.724 325.825,241.645 316.722 C 239.165 315.225,235.859 313.229,234.297 312.286 C 226.450 307.547,220.679 304.036,213.143 299.415 C 208.586 296.621,203.379 293.493,201.571 292.464 C 199.764 291.435,198.286 290.407,198.286 290.179 C 198.286 289.069,223.031 276.004,240.857 267.702 C 244.000 266.238,247.678 264.520,249.031 263.883 C 251.844 262.559,251.970 262.637,254.277 267.143 C 254.921 268.400,256.209 270.714,257.141 272.286 C 258.073 273.857,259.498 276.300,260.309 277.714 C 261.120 279.129,262.781 281.957,264.000 284.000 C 265.219 286.043,266.890 288.871,267.712 290.286 C 268.535 291.700,269.966 294.143,270.893 295.714 C 271.820 297.286,272.887 299.214,273.264 300.000 C 273.642 300.786,274.669 302.503,275.547 303.817 C 276.425 305.131,277.143 306.370,277.143 306.571 C 277.143 306.772,277.882 308.012,278.786 309.326 C 279.690 310.639,280.499 311.971,280.584 312.286 C 280.668 312.600,281.343 313.816,282.083 314.989 C 282.823 316.161,283.429 317.364,283.429 317.662 C 283.429 317.960,283.787 318.562,284.224 319.000 C 284.662 319.437,285.701 321.063,286.534 322.612 C 287.366 324.161,289.071 327.100,290.322 329.143 C 291.573 331.186,292.913 333.500,293.300 334.286 C 293.687 335.071,294.412 336.357,294.911 337.143 C 295.409 337.929,296.923 340.500,298.274 342.857 C 299.625 345.214,301.173 347.790,301.712 348.580 C 302.252 349.371,303.552 351.685,304.602 353.723 C 305.652 355.761,306.941 358.071,307.467 358.857 C 307.993 359.643,309.845 362.729,311.584 365.714 C 313.322 368.700,315.278 372.043,315.930 373.143 C 316.582 374.243,317.801 376.429,318.639 378.000 C 326.586 392.900,344.852 395.485,357.086 383.440 C 362.660 377.951,365.119 369.625,363.166 362.857 C 362.111 359.203,361.818 358.126,361.758 357.669 C 361.734 357.488,360.984 356.202,360.091 354.812 C 358.223 351.905,355.196 346.707,355.125 346.286 C 355.098 346.129,354.449 344.971,353.682 343.714 C 351.989 340.938,351.068 339.313,348.935 335.337 C 348.035 333.659,346.971 331.900,346.572 331.429 C 346.172 330.957,344.883 328.771,343.707 326.571 C 342.531 324.371,340.588 320.900,339.389 318.857 C 338.191 316.814,336.417 313.729,335.447 312.000 C 334.477 310.271,333.082 307.829,332.347 306.571 C 330.678 303.716,328.422 299.691,326.505 296.149 C 325.695 294.653,324.825 293.171,324.571 292.857 C 324.318 292.543,323.479 291.129,322.707 289.714 C 320.038 284.821,318.121 281.423,317.228 280.000 C 316.734 279.214,316.276 278.227,316.208 277.807 C 316.141 277.387,315.723 276.615,315.278 276.093 C 314.833 275.570,313.749 273.857,312.868 272.286 C 311.987 270.714,310.686 268.400,309.976 267.143 C 309.267 265.886,307.845 263.314,306.816 261.429 C 305.788 259.543,304.480 257.391,303.909 256.647 C 303.339 255.903,303.013 255.067,303.184 254.790 C 303.356 254.513,303.273 254.286,303.001 254.286 C 302.728 254.286,301.620 252.598,300.538 250.536 C 299.457 248.474,298.178 246.095,297.697 245.251 C 297.216 244.406,295.825 241.914,294.605 239.714 C 293.385 237.514,292.071 235.329,291.685 234.857 C 291.298 234.386,289.904 231.943,288.587 229.429 C 287.270 226.914,285.157 223.057,283.892 220.857 C 281.436 216.587,279.969 213.992,277.429 209.429 C 276.555 207.857,275.432 205.929,274.934 205.143 C 274.437 204.357,274.016 203.586,274.000 203.429 C 273.972 203.160,272.088 199.814,269.571 195.561 C 267.877 192.700,265.921 189.189,264.028 185.613 C 263.084 183.829,262.048 182.206,261.727 182.008 C 261.406 181.809,261.143 181.232,261.143 180.726 C 261.143 180.219,260.777 179.398,260.331 178.902 C 259.884 178.406,258.849 176.714,258.029 175.143 C 257.210 173.571,255.790 171.000,254.874 169.429 C 253.957 167.857,252.517 165.286,251.673 163.714 C 250.830 162.143,249.640 160.150,249.031 159.286 C 248.421 158.421,248.108 157.714,248.335 157.714 C 248.563 157.714,248.349 157.264,247.861 156.714 C 247.373 156.164,246.133 154.171,245.105 152.286 C 244.078 150.400,242.663 147.829,241.962 146.571 C 241.260 145.314,239.850 142.743,238.827 140.857 C 237.805 138.971,236.602 137.001,236.155 136.479 C 235.708 135.956,235.286 135.146,235.217 134.679 C 235.149 134.212,234.813 133.482,234.471 133.058 C 233.889 132.335,231.242 127.590,229.259 123.714 C 228.777 122.771,227.890 121.361,227.288 120.580 L 226.195 119.159 231.526 117.890 C 257.346 111.742,281.589 120.792,298.114 142.747 C 307.333 154.997,312.365 158.212,322.401 158.265 C 340.628 158.362,353.511 139.427,344.353 126.000 C 343.710 125.057,342.982 124.200,342.735 124.095 C 342.488 123.990,342.282 123.605,342.279 123.238 C 342.275 122.871,341.439 121.558,340.421 120.319 C 331.903 109.947,329.294 106.992,324.176 101.918 C 292.732 70.751,251.564 60.833,210.571 74.548 C 197.436 78.943,193.732 80.637,180.571 88.267 C 178.529 89.452,175.186 91.318,173.143 92.416 C 169.791 94.216,168.258 95.096,162.571 98.481 C 137.937 113.145,112.280 115.433,92.822 104.702 C 88.416 102.272,85.997 100.754,84.286 99.344 C 78.331 94.438,74.652 90.943,72.000 87.672 C 70.271 85.540,68.021 82.846,67.000 81.686 C 65.979 80.525,65.143 79.338,65.143 79.047 C 65.143 78.256,58.826 72.717,56.505 71.473 C 51.625 68.857,45.513 67.994,40.397 69.198 " stroke="none" fill="#000000" fill-rule="evenodd"></path></g></svg>